<svg xmlns="http://www.w3.org/2000/svg" xmlns:xlink="http://www.w3.org/1999/xlink" viewBox="0 0 161.51 62.38"><defs><style>.cls-1,.cls-6{fill:none;}.cls-2{fill:#fff;}.cls-3{clip-path:url(#clip-path);}.cls-4{fill:url(#Безымянный_градиент_2);}.cls-5{fill:url(#Безымянный_градиент_13);}.cls-6{stroke:#fff;stroke-miterlimit:10;stroke-width:0.62px;}.cls-7{clip-path:url(#clip-path-2);}.cls-8{clip-path:url(#clip-path-3);}.cls-9{clip-path:url(#clip-path-4);}.cls-10{clip-path:url(#clip-path-5);}.cls-11{clip-path:url(#clip-path-6);}.cls-12{clip-path:url(#clip-path-7);}.cls-13{clip-path:url(#clip-path-8);}.cls-14{clip-path:url(#clip-path-9);}.cls-15{clip-path:url(#clip-path-10);}.cls-16{clip-path:url(#clip-path-11);}.cls-17{clip-path:url(#clip-path-12);}.cls-18{clip-path:url(#clip-path-13);}</style><clipPath id="clip-path"><path class="cls-1" d="M70.84,20.2H86.93v2.39H80.29V41.93H77.45V22.59H70.84ZM92.16,31.74h8.45V29.42H92.16V22.55h8.93V20.2H89.35V41.93h12.23V39.58H92.16Zm26.73-2.45c0,3.39.07,6,.33,8.94l-.07,0a60.51,60.51,0,0,0-3.9-7.06l-7-11h-3.06V41.93h2.64V32.65c0-3.62-.06-6.23-.22-9l.09,0a69.55,69.55,0,0,0,4.07,7.26l6.9,11h2.84V20.2h-2.65Zm14.06.33c-3-1.17-4.32-2.17-4.32-4.2,0-1.48,1.13-3.25,4.1-3.25a8.66,8.66,0,0,1,4.13,1l.77-2.29a9.86,9.86,0,0,0-4.81-1.07c-4.22,0-7,2.52-7,5.91,0,3.06,2.2,4.9,5.74,6.16,2.94,1.12,4.1,2.28,4.1,4.32,0,2.19-1.68,3.71-4.55,3.71a10,10,0,0,1-5-1.42l-.71,2.35a11.27,11.27,0,0,0,5.55,1.39c5.13,0,7.61-2.91,7.61-6.26C138.5,32.81,136.63,31,133,29.62Zm22.32-9.42-3.13,6c-.83,1.64-1.58,3.06-2.19,4.48h-.06c-.68-1.52-1.32-2.84-2.16-4.48l-3.07-6h-3.19l6.87,12.51v9.22h2.84V32.68l7.29-12.48Z"/></clipPath><linearGradient id="Безымянный_градиент_2" x1="68.65" y1="31.13" x2="161.51" y2="31.13" gradientUnits="userSpaceOnUse"><stop offset="0" stop-color="#7373b1"/><stop offset="1" stop-color="#5989c5"/></linearGradient><linearGradient id="Безымянный_градиент_13" y1="31.19" x2="62.38" y2="31.19" gradientUnits="userSpaceOnUse"><stop offset="0" stop-color="#7373b1"/><stop offset="1" stop-color="#5888c4"/></linearGradient><clipPath id="clip-path-2"><path class="cls-2" d="M17.29,14.92l-1.22-.7a1,1,0,0,0-1,0l-1.22.7a1,1,0,0,0-.51.88v1.41a1,1,0,0,0,.51.87l1.22.71a1,1,0,0,0,1,0l1.22-.71a1,1,0,0,0,.5-.87V15.8A1,1,0,0,0,17.29,14.92Z"/></clipPath><clipPath id="clip-path-3"><path class="cls-2" d="M38.73,8.36l-1.22-.71a1,1,0,0,0-1,0l-1.23.71a1,1,0,0,0-.5.87v1.41a1,1,0,0,0,.5.88l1.23.7a1,1,0,0,0,1,0l1.22-.7a1,1,0,0,0,.5-.88V9.23A1,1,0,0,0,38.73,8.36Z"/></clipPath><clipPath id="clip-path-4"><path class="cls-2" d="M53.6,23.73,52.38,23a1,1,0,0,0-1,0l-1.22.7a1,1,0,0,0-.51.88V26a1,1,0,0,0,.51.87l1.22.71a1,1,0,0,0,1,0l1.22-.71a1,1,0,0,0,.51-.87V24.61A1,1,0,0,0,53.6,23.73Z"/></clipPath><clipPath id="clip-path-5"><path class="cls-2" d="M50.29,46.07l-1.22-.71a1,1,0,0,0-1,0l-1.22.71a1,1,0,0,0-.51.87v1.42a1,1,0,0,0,.51.87l1.22.71a1,1,0,0,0,1,0l1.22-.71a1,1,0,0,0,.5-.87V46.94A1,1,0,0,0,50.29,46.07Z"/></clipPath><clipPath id="clip-path-6"><path class="cls-2" d="M28.74,50.56l-1.22-.71a1,1,0,0,0-1,0l-1.23.71a1,1,0,0,0-.5.87v1.42a1,1,0,0,0,.5.87l1.23.71a1,1,0,0,0,1,0l1.22-.71a1,1,0,0,0,.5-.87V51.43A1,1,0,0,0,28.74,50.56Z"/></clipPath><clipPath id="clip-path-7"><path class="cls-2" d="M10.28,36.7,9.05,36a1,1,0,0,0-1,0l-1.22.71a1,1,0,0,0-.5.87V39a1,1,0,0,0,.5.88l1.22.7a1,1,0,0,0,1,0l1.23-.7a1,1,0,0,0,.5-.88V37.57A1,1,0,0,0,10.28,36.7Z"/></clipPath><clipPath id="clip-path-8"><path class="cls-2" d="M21.07,21.15l-1-.56a.77.77,0,0,0-.8,0l-1,.56a.8.8,0,0,0-.4.69V23a.8.8,0,0,0,.4.69l1,.56a.77.77,0,0,0,.8,0l1-.56a.8.8,0,0,0,.4-.69V21.84A.8.8,0,0,0,21.07,21.15Z"/></clipPath><clipPath id="clip-path-9"><path class="cls-2" d="M35.38,18.34l-1-.56a.81.81,0,0,0-.8,0l-1,.56a.8.8,0,0,0-.4.69v1.12a.82.82,0,0,0,.4.69l1,.56a.81.81,0,0,0,.8,0l1-.56a.82.82,0,0,0,.4-.69V19A.8.8,0,0,0,35.38,18.34Z"/></clipPath><clipPath id="clip-path-10"><path class="cls-2" d="M47.33,23.05l-1-.56a.8.8,0,0,0-.79,0l-1,.56a.81.81,0,0,0-.4.69v1.12a.78.78,0,0,0,.4.69l1,.56a.8.8,0,0,0,.79,0l1-.56a.78.78,0,0,0,.4-.69V23.74A.81.81,0,0,0,47.33,23.05Z"/></clipPath><clipPath id="clip-path-11"><path class="cls-2" d="M44,36.41l-1-.56a.81.81,0,0,0-.8,0l-1,.56a.79.79,0,0,0-.4.69v1.12a.79.79,0,0,0,.4.69l1,.56a.81.81,0,0,0,.8,0l1-.56a.79.79,0,0,0,.4-.69V37.1A.79.79,0,0,0,44,36.41Z"/></clipPath><clipPath id="clip-path-12"><path class="cls-2" d="M32.07,45.11l-1-.56a.81.81,0,0,0-.8,0l-1,.56a.82.82,0,0,0-.4.69v1.12a.82.82,0,0,0,.4.69l1,.56a.81.81,0,0,0,.8,0l1-.56a.82.82,0,0,0,.4-.69V45.8A.82.82,0,0,0,32.07,45.11Z"/></clipPath><clipPath id="clip-path-13"><path class="cls-2" d="M21.07,34.22l-1-.56a.81.81,0,0,0-.8,0l-1,.56a.82.82,0,0,0-.4.69V36a.8.8,0,0,0,.4.69l1,.56a.81.81,0,0,0,.8,0l1-.56a.8.8,0,0,0,.4-.69V34.91A.82.82,0,0,0,21.07,34.22Z"/></clipPath></defs><title>Ресурс 2</title><g id="Слой_2" data-name="Слой 2"><g id="Слой_1-2" data-name="Слой 1"><g class="cls-3"><rect class="cls-4" x="68.65" y="13.66" width="92.86" height="34.94"/></g><circle class="cls-5" cx="31.19" cy="31.19" r="31.19"/><path class="cls-6" d="M36.91,10.24q-1.69,4.5-3.38,9"/><path class="cls-6" d="M19.28,35.66,16,17"/><path class="cls-6" d="M36.89,10.18,18.7,22.82"/><path class="cls-6" d="M19.94,35.2l13.62-16"/><path class="cls-6" d="M33.53,19.25l18.14,6.33"/><path class="cls-6" d="M48.59,47.7l-2-24"/><path class="cls-6" d="M43,37.74,27.11,52"/><path class="cls-6" d="M9,38.19l22.56,9.89"/><line class="cls-6" x1="8.98" y1="38.19" x2="19.91" y2="35.47"/><line class="cls-6" x1="43.32" y1="37.74" x2="19.91" y2="35.47"/><path class="cls-6" d="M36.86,10.08,51.7,25.58q-1.53,11.09-3.05,22.17L27,51.82,8.81,38.25q3.53-10.71,7-21.41Z"/><polygon class="cls-2" points="49.1 47.2 47.58 47.97 33.41 19.26 33.64 19.15 49.1 47.2"/><polygon class="cls-2" points="9.27 37.65 9.03 38.51 9.93 39.26 42.93 37.95 42.78 37.73 9.27 37.65"/><path class="cls-2" d="M35.43,10.54l1.41-.34.61.55L20.13,35.58l-.26,0-.15-.36Z"/><polygon class="cls-2" points="19.92 22.12 19.05 22.8 19.61 23.69 51.89 25.77 51.59 25.28 19.92 22.12"/><path class="cls-2" d="M45.83,23.78l1.4.71L27.16,52.13l-.37-.27Z"/><polygon class="cls-2" points="31.82 47.63 31.39 48.06 30.36 47.61 15.9 17.05 16.29 16.82 31.82 47.63"/><path class="cls-2" d="M17.29,14.92l-1.22-.7a1,1,0,0,0-1,0l-1.22.7a1,1,0,0,0-.51.88v1.41a1,1,0,0,0,.51.87l1.22.71a1,1,0,0,0,1,0l1.22-.71a1,1,0,0,0,.5-.87V15.8A1,1,0,0,0,17.29,14.92Z"/><g class="cls-7"><rect class="cls-2" x="13.33" y="14.1" width="4.46" height="4.85"/></g><path class="cls-2" d="M38.73,8.36l-1.22-.71a1,1,0,0,0-1,0l-1.23.71a1,1,0,0,0-.5.87v1.41a1,1,0,0,0,.5.88l1.23.7a1,1,0,0,0,1,0l1.22-.7a1,1,0,0,0,.5-.88V9.23A1,1,0,0,0,38.73,8.36Z"/><g class="cls-8"><rect class="cls-2" x="34.77" y="7.53" width="4.46" height="4.85"/></g><path class="cls-2" d="M53.6,23.73,52.38,23a1,1,0,0,0-1,0l-1.22.7a1,1,0,0,0-.51.88V26a1,1,0,0,0,.51.87l1.22.71a1,1,0,0,0,1,0l1.22-.71a1,1,0,0,0,.51-.87V24.61A1,1,0,0,0,53.6,23.73Z"/><g class="cls-9"><rect class="cls-2" x="49.64" y="22.91" width="4.46" height="4.85"/></g><path class="cls-2" d="M50.29,46.07l-1.22-.71a1,1,0,0,0-1,0l-1.22.71a1,1,0,0,0-.51.87v1.42a1,1,0,0,0,.51.87l1.22.71a1,1,0,0,0,1,0l1.22-.71a1,1,0,0,0,.5-.87V46.94A1,1,0,0,0,50.29,46.07Z"/><g class="cls-10"><rect class="cls-2" x="46.33" y="45.24" width="4.46" height="4.85"/></g><path class="cls-2" d="M28.74,50.56l-1.22-.71a1,1,0,0,0-1,0l-1.23.71a1,1,0,0,0-.5.87v1.42a1,1,0,0,0,.5.87l1.23.71a1,1,0,0,0,1,0l1.22-.71a1,1,0,0,0,.5-.87V51.43A1,1,0,0,0,28.74,50.56Z"/><g class="cls-11"><rect class="cls-2" x="24.78" y="49.73" width="4.46" height="4.85"/></g><path class="cls-2" d="M10.28,36.7,9.05,36a1,1,0,0,0-1,0l-1.22.71a1,1,0,0,0-.5.87V39a1,1,0,0,0,.5.88l1.22.7a1,1,0,0,0,1,0l1.23-.7a1,1,0,0,0,.5-.88V37.57A1,1,0,0,0,10.28,36.7Z"/><g class="cls-12"><rect class="cls-2" x="6.32" y="35.87" width="4.46" height="4.85"/></g><path class="cls-2" d="M21.07,21.15l-1-.56a.77.77,0,0,0-.8,0l-1,.56a.8.8,0,0,0-.4.69V23a.8.8,0,0,0,.4.69l1,.56a.77.77,0,0,0,.8,0l1-.56a.8.8,0,0,0,.4-.69V21.84A.8.8,0,0,0,21.07,21.15Z"/><g class="cls-13"><rect class="cls-2" x="17.93" y="20.49" width="3.53" height="3.83"/></g><path class="cls-2" d="M35.38,18.34l-1-.56a.81.81,0,0,0-.8,0l-1,.56a.8.8,0,0,0-.4.69v1.12a.82.82,0,0,0,.4.69l1,.56a.81.81,0,0,0,.8,0l1-.56a.82.82,0,0,0,.4-.69V19A.8.8,0,0,0,35.38,18.34Z"/><g class="cls-14"><rect class="cls-2" x="32.25" y="17.68" width="3.53" height="3.83"/></g><path class="cls-2" d="M47.33,23.05l-1-.56a.8.8,0,0,0-.79,0l-1,.56a.81.81,0,0,0-.4.69v1.12a.78.78,0,0,0,.4.69l1,.56a.8.8,0,0,0,.79,0l1-.56a.78.78,0,0,0,.4-.69V23.74A.81.81,0,0,0,47.33,23.05Z"/><g class="cls-15"><rect class="cls-2" x="44.2" y="22.4" width="3.53" height="3.83"/></g><path class="cls-2" d="M44,36.41l-1-.56a.81.81,0,0,0-.8,0l-1,.56a.79.79,0,0,0-.4.69v1.12a.79.79,0,0,0,.4.69l1,.56a.81.81,0,0,0,.8,0l1-.56a.79.79,0,0,0,.4-.69V37.1A.79.79,0,0,0,44,36.41Z"/><g class="cls-16"><rect class="cls-2" x="40.83" y="35.76" width="3.53" height="3.83"/></g><path class="cls-2" d="M32.07,45.11l-1-.56a.81.81,0,0,0-.8,0l-1,.56a.82.82,0,0,0-.4.69v1.12a.82.82,0,0,0,.4.69l1,.56a.81.81,0,0,0,.8,0l1-.56a.82.82,0,0,0,.4-.69V45.8A.82.82,0,0,0,32.07,45.11Z"/><g class="cls-17"><rect class="cls-2" x="28.93" y="44.45" width="3.53" height="3.83"/></g><path class="cls-2" d="M21.07,34.22l-1-.56a.81.81,0,0,0-.8,0l-1,.56a.82.82,0,0,0-.4.69V36a.8.8,0,0,0,.4.69l1,.56a.81.81,0,0,0,.8,0l1-.56a.8.8,0,0,0,.4-.69V34.91A.82.82,0,0,0,21.07,34.22Z"/><g class="cls-18"><rect class="cls-2" x="17.93" y="33.57" width="3.53" height="3.83"/></g></g></g></svg>